Coordinates
version=1
nRows=17
nColumns=33
inDegrees=yes

Units are S.I. units (second, meters, Newtons, ...)
Angles are in degrees.

endheader
time	ground_thorax_rot_x	ground_thorax_rot_y	ground_thorax_rot_z	ground_thorax_tx	ground_thorax_ty	ground_thorax_tz	clav_prot_r	clav_elev_r	scapula_abduction_r	scapula_elevation_r	scapula_upward_rot_r	scapula_winging_r	shoulder_elv_r	plane_of_elev_r	axial_rot_r	elbow_flexion_r	pro_sup_r	wrist_flex_r	wrist_dev_r	clav_prot_l	clav_elev_l	scapula_abduction_l	scapula_elevation_l	scapula_upward_rot_l	scapula_winging_l	shoulder_elv_l	plane_of_elev_l	axial_rot_l	elbow_flexion_l	pro_sup_l	wrist_flex_l	wrist_dev_l
      2.83000000	    -36.55888083	     -1.88071706	      5.19457599	     43.86243704	    777.55168413	    -39.20380657	     15.33143140	    -45.00000000	     45.00000000	    -45.00000000	     -8.42582388	  -3327.08302102	   -651.19949852	     20.19058062	    179.99999979	   2163.73504477	   -166.02529970	     12.18644091	     12.22310914	     16.38820444	     23.50602595	    -43.31076334	    -41.17960648	    -45.00000000	  -2091.52970244	  -3142.85765524	     20.68746446	   -179.99999979	   1435.43628434	    154.87952905	     10.19303927	    -11.80126088
      2.84000000	    -36.32267998	     -2.09966669	      5.61763135	     43.99508688	    777.22648088	    -39.41924945	     15.48312305	    -45.00000000	     45.00000000	    -45.00000000	     -8.88606366	  -3327.05955359	   -650.97624479	     20.18176859	    179.99999979	   2163.66598076	   -166.06574751	     11.88751414	     12.18341438	     16.20194966	     23.30201802	    -43.04172205	    -40.78897219	    -45.00000000	  -2091.49042349	  -3142.83447199	     20.60250403	   -179.99999979	   1435.53981594	    154.73340700	     10.55889557	    -11.34279322
      2.85000000	    -36.35985301	     -2.15721180	      5.84649897	     44.03444286	    776.95956777	    -39.63587551	     15.74830023	    -45.00000000	     45.00000000	    -45.00000000	     -9.34561292	  -3327.14706339	   -651.20790399	     20.34229851	    179.99999979	   2163.89043734	   -166.26332005	     12.29125725	     12.10160991	     15.86143166	     23.09429171	    -42.83874840	    -41.07488246	    -45.00000000	  -2091.57581655	  -3143.12470163	     20.66266894	   -179.99999979	   1435.57788929	    154.50948563	     10.07970559	    -11.87075041
      2.86000000	    -36.39029455	     -2.22448067	      6.17432426	     43.96622782	    776.74655193	    -39.84552822	     15.78349695	    -45.00000000	     45.00000000	    -45.00000000	     -9.66418973	  -3327.04185935	   -651.14760513	     20.13851841	    179.99999979	   2163.79077969	   -166.48890422	     11.77382471	     12.15585178	     15.83012529	     23.27762463	    -42.64966951	    -41.22514628	    -45.00000000	  -2091.68103274	  -3143.01457325	     20.59833538	   -179.99999979	   1435.42306850	    154.47612287	     10.66089450	    -11.30378151
      2.87000000	    -36.30427018	     -2.25272700	      6.42353063	     43.78903781	    776.59085437	    -40.04388391	     15.98826603	    -45.00000000	     45.00000000	    -45.00000000	     -9.96065987	  -3327.17544776	   -651.12742543	     20.29481373	    179.99999979	   2164.05029803	   -166.86145073	     12.07704572	     12.01522870	     15.60841468	     23.27646782	    -42.40809407	    -41.16312605	    -45.00000000	  -2091.74778216	  -3143.05271585	     20.55539503	   -179.99999979	   1435.53390609	    154.19112745	     10.25937856	    -11.74957472
      2.88000000	    -36.21363164	     -2.31453467	      6.68899801	     43.50237245	    776.49226391	    -40.23214704	     15.98489913	    -45.00000000	     45.00000000	    -45.00000000	    -10.14784564	  -3327.14825039	   -651.00855957	     20.15112930	    179.99999979	   2163.89552621	   -167.18577340	     11.59216262	     12.08279479	     15.51413587	     23.26087933	    -42.26788098	    -41.03295988	    -45.00000000	  -2091.66296028	  -3142.95524176	     20.52822623	   -179.99999979	   1435.51226968	    154.06820698	     10.75215394	    -11.19447069
      2.89000000	    -36.21730941	     -2.33799742	      6.86517576	     43.10389723	    776.45234883	    -40.41235512	     16.18283562	    -45.00000000	     45.00000000	    -45.00000000	    -10.43548396	  -3327.23806415	   -650.98501422	     20.24912955	    179.99999979	   2163.97062312	   -167.67345614	     11.83285879	     12.00321110	     15.36534555	     23.30406362	    -42.06545211	    -41.31390092	    -45.00000000	  -2091.84450332	  -3143.07941274	     20.51778236	   -179.99999979	   1435.53898533	    153.70556414	     10.56023377	    -11.45142973
      2.90000000	    -36.18656425	     -2.39176451	      7.02945055	     42.59818257	    776.47475583	    -40.58383437	     16.23209818	    -45.00000000	     45.00000000	    -45.00000000	    -10.63432013	  -3327.34043706	   -651.04147556	     20.34519686	    179.99999979	   2164.07988126	   -168.06016411	     11.76432596	     11.95205272	     15.17703867	     23.52495799	    -41.76936307	    -41.31380063	    -45.00000000	  -2091.84552098	  -3143.02818915	     20.57101026	   -179.99999979	   1435.59453702	    153.31682673	     10.38607281	    -11.54665468
      2.91000000	    -36.08420691	     -2.43814599	      7.28122159	     41.97973690	    776.56411104	    -40.75055578	     16.35521852	    -45.00000000	     45.00000000	    -45.00000000	    -10.79689865	  -3327.41204454	   -650.83176602	     20.36707579	    179.99999979	   2164.05388163	   -168.46062349	     11.77700383	     11.98716978	     15.01400893	     23.09309924	    -41.88880599	    -41.07266739	    -45.00000000	  -2091.52055999	  -3143.06466379	     20.45751404	   -179.99999979	   1435.58592717	    152.94555545	     10.66966826	    -11.36677780
      2.92000000	    -36.25984606	     -2.42108991	      7.28298835	     41.25866559	    776.72374356	    -40.91053904	     16.41448656	    -45.00000000	     45.00000000	    -45.00000000	    -11.07275947	  -3327.43459889	   -651.02398352	     20.35927414	    179.99999979	   2164.11402986	   -168.86360681	     11.72480856	     11.90304475	     14.91045929	     23.88859135	    -41.29624662	    -41.81105686	    -45.00000000	  -2092.14905163	  -3143.05825144	     20.52147819	   -179.99999979	   1435.58777281	    152.41035051	     10.35913187	    -11.56648692
      2.93000000	    -36.03860424	     -2.50412169	      7.54452162	     40.42994003	    776.96065278	    -41.06654709	     16.57780516	    -45.00000000	     45.00000000	    -45.00000000	    -11.24641196	  -3327.66292802	   -650.78113534	     20.52011531	    179.99999979	   2164.15310071	   -169.26678552	     11.72631322	     11.99836433	     14.66845469	     23.08100151	    -41.51829480	    -41.14318563	    -45.00000000	  -2091.34268523	  -3143.27465508	     20.60664204	   -179.99999979	   1435.66243116	    151.89161424	     10.69165080	    -11.29136011
      2.94000000	    -36.19107039	     -2.48578303	      7.64428194	     39.48613751	    777.28500964	    -41.22158814	     16.58886627	    -45.00000000	     45.00000000	    -45.00000000	    -11.34849218	  -3327.78498934	   -650.93278947	     20.42474989	    179.99999979	   2164.00872396	   -169.67562995	     11.76495668	     11.93583136	     14.48276841	     23.32829800	    -41.15864185	    -41.75090377	    -45.00000000	  -2091.73398727	  -3143.24529638	     20.57985061	   -179.99999979	   1435.50937019	    151.32981539	     10.52139099	    -11.44742967
      2.95000000	    -36.33467830	     -2.74804772	      7.91446288	     38.43197450	    777.70162593	    -41.37690478	     16.80922666	    -45.00000000	     45.00000000	    -45.00000000	    -11.79303198	  -3327.70016615	   -650.98743434	     20.27268668	    179.99999979	   2163.97787632	   -170.21468711	     11.74373438	     11.87800293	     14.56637678	     24.10844231	    -40.64051343	    -42.28283522	    -45.00000000	  -2092.23605631	  -3143.19402195	     20.28236454	   -179.99999979	   1435.44450961	    150.46762320	     10.49846643	    -11.41707535
      2.96000000	    -36.35181815	     -2.87573321	      8.11476941	     37.26203884	    778.22254280	    -41.53485436	     16.92382792	    -45.00000000	     45.00000000	    -45.00000000	    -12.04111923	  -3327.82657824	   -650.94382495	     20.30826703	    179.99999979	   2164.00677256	   -170.67783482	     11.73335021	     11.87801426	     14.30131390	     24.11735744	    -40.36203898	    -42.38087403	    -45.00000000	  -2092.20963831	  -3143.12816863	     20.23703848	   -179.99999979	   1435.43777485	    149.70752525	     10.50671624	    -11.37958805
      2.97000000	    -36.43092833	     -3.00902357	      8.24009746	     35.96946231	    778.85744991	    -41.69640766	     17.08174498	    -45.00000000	     45.00000000	    -45.00000000	    -12.33840780	  -3327.94585469	   -650.94311426	     20.39705794	    179.99999979	   2163.96997546	   -171.13876170	     11.75193466	     11.94425765	     14.16884273	     24.50890640	    -39.96440430	    -42.78213869	    -45.00000000	  -2092.36278876	  -3143.11834369	     20.24826693	   -179.99999979	   1435.38504698	    148.91188117	     10.43974654	    -11.40367592
      2.98000000	    -36.50335504	     -3.10495968	      8.37375846	     34.55219807	    779.61344120	    -41.86143277	     17.16166244	    -45.00000000	     45.00000000	    -45.00000000	    -12.45981970	  -3328.10401983	   -650.95916974	     20.40186206	    179.99999979	   2163.94707327	   -171.56206145	     11.77309121	     11.95559255	     13.96357238	     24.62961123	    -39.69273916	    -43.01464133	    -45.00000000	  -2092.39423882	  -3143.05248991	     20.19064813	   -179.99999979	   1435.35884498	    148.16880217	     10.40553924	    -11.41301374
      2.99000000	    -36.64961434	     -3.31716077	      8.51967043	     33.00418122	    780.49717381	    -42.02830891	     17.37738310	    -45.00000000	     45.00000000	    -45.00000000	    -12.86500636	  -3328.27011174	   -651.03051474	     20.53172034	    179.99999979	   2163.89159383	   -172.01686436	     11.82300302	     12.13517619	     13.81004515	     25.24185405	    -39.24992972	    -43.48151454	    -45.00000000	  -2092.47151967	  -3143.03014086	     20.24574347	   -179.99999979	   1435.33952872	    147.29969994	     10.27144648	    -11.47011818
